<svg width="20" height="20" viewBox="0 0 20 20" fill="none" xmlns="http://www.w3.org/2000/svg">
<path d="M19.8797 3.58267C19.7706 3.42049 19.6022 3.3255 19.4238 3.3255H4.76418L4.1239 0.495541C4.0579 0.203672 3.82861 0 3.56614 0H0.576275C0.258017 0 0 0.296459 0 0.662134C0 1.02781 0.258017 1.32427 0.576275 1.32427H3.12049L3.76077 4.15423C3.76069 4.15414 3.76077 4.15431 3.76077 4.15423L6.01838 14.1278C6.08438 14.4196 6.31366 14.6233 6.57606 14.6233H17.1658C17.4282 14.6233 17.6575 14.4196 17.7235 14.1278L19.9814 4.15423C20.0264 3.95594 19.9888 3.74476 19.8797 3.58267ZM9.05727 13.2991H7.02171L6.56899 11.2993H9.05727V13.2991ZM9.05727 9.97491H6.26925L5.8163 7.97377H9.05727V9.97491ZM9.05727 6.6495H5.51648L5.06384 4.64977H9.05727V6.6495ZM13.5324 13.2991H10.2098V11.2993H13.5324V13.2991ZM13.5324 9.97491H10.2098V7.97377H13.5324V9.97491ZM13.5324 6.6495H10.2098V4.64977H13.5324V6.6495ZM16.7203 13.2991H14.6849V11.2993H17.1731L16.7203 13.2991ZM17.4729 9.97491H14.6849V7.97377H17.9259L17.4729 9.97491ZM18.2257 6.6495H14.685V4.64977H18.6785L18.2257 6.6495Z" fill="#727272"/>
<path d="M8.10502 15.1626C6.94432 15.1626 6 16.2476 6 17.5812C6 18.915 6.94432 20.0001 8.10502 20.0001C9.26563 20.0001 10.21 18.915 10.21 17.5812C10.21 16.2476 9.26571 15.1626 8.10502 15.1626ZM8.10502 18.6759C7.57984 18.6759 7.15255 18.1848 7.15255 17.5812C7.15255 16.9777 7.57984 16.4869 8.10502 16.4869C8.63012 16.4869 9.05741 16.9778 9.05741 17.5812C9.05741 18.1848 8.63019 18.6759 8.10502 18.6759Z" fill="#727272"/>
<path d="M15.6369 15.1626C14.4764 15.1626 13.5322 16.2476 13.5322 17.5812C13.5322 18.915 14.4764 20.0001 15.6369 20.0001C16.7977 20.0001 17.742 18.915 17.742 17.5812C17.742 16.2476 16.7976 15.1626 15.6369 15.1626ZM15.6369 18.6759C15.1119 18.6759 14.6848 18.1848 14.6848 17.5812C14.6848 16.9777 15.1119 16.4869 15.6369 16.4869C16.1622 16.4869 16.5894 16.9778 16.5894 17.5812C16.5894 18.1848 16.1621 18.6759 15.6369 18.6759Z" fill="#727272"/>
</svg>
