<svg width="20" height="18" viewBox="0 0 20 18" fill="none" xmlns="http://www.w3.org/2000/svg">
<path d="M4.6019 8.66856C3.76615 9.85075 0 9.84979 0 14.3711H4.19208C5.01473 13.239 6.15505 12.6734 6.97771 12.2665C7.13439 12.1891 7.3166 12.0988 7.48042 12.0102C6.46026 11.0394 5.83886 9.5114 5.83886 7.84945C5.83886 5.43547 7.15287 3.40474 8.92924 2.80959C8.48702 1.1737 7.30214 0 5.90575 0C4.13241 0 2.69448 1.88966 2.69448 4.22028C2.69448 5.98951 3.52336 7.5018 4.69753 8.12947L4.6019 8.66856Z" fill="#727272"/>
<path d="M9.95763 17.9998L10.0415 18H15.905C15.905 13.555 12.2642 13.4817 11.3472 12.3568L11.2383 11.7439C12.3969 11.1068 13.211 9.60345 13.211 7.84945C13.211 5.51884 11.7731 3.62918 9.99972 3.62918C8.22638 3.62918 6.78845 5.51884 6.78845 7.84945C6.78845 9.61869 7.61733 11.131 8.7915 11.7586L8.69587 12.2977C7.86012 13.4799 4.09397 13.4787 4.09397 17.9998H9.95763Z" fill="#727272"/>
<path d="M13.0211 12.2668C13.8438 12.6737 14.9841 13.2394 15.807 14.3713H20C20 9.92572 16.3591 9.85249 15.4422 8.7278L15.3333 8.1149C16.4918 7.47758 17.306 5.97446 17.306 4.22047C17.306 1.88985 15.8682 0.000192896 14.0947 0.000192896C12.698 0.000192896 11.5132 1.1739 11.0712 2.81008C12.8471 3.40542 14.1607 5.43576 14.1607 7.84945C14.1607 9.50763 13.5385 11.0389 12.5193 12.011C12.6797 12.0978 12.8592 12.1867 13.0211 12.2668Z" fill="#727272"/>
</svg>
