<svg width="20" height="20" viewBox="0 0 20 20" fill="none" xmlns="http://www.w3.org/2000/svg">
<path d="M16.5403 5.92236C16.4621 6.00691 16.4112 6.06145 16.373 6.10236C16.444 6.02599 16.5403 5.92236 16.5403 5.92236Z" fill="#727272"/>
<path d="M11.0121 6.56508C11.2721 6.88508 11.4012 7.26237 11.4012 7.69691C11.4012 8.00782 11.3121 8.30691 11.1349 8.59599C11.0376 8.75962 10.9094 8.91782 10.7494 9.0687L10.2167 9.59508C9.70577 10.0969 9.37577 10.5414 9.22486 10.9305C9.07394 11.3187 8.99849 11.8305 8.99849 12.4651H10.1839C10.1839 11.906 10.2476 11.4832 10.3739 11.1969C10.5003 10.9105 10.7767 10.5615 11.203 10.1478C11.7894 9.57959 12.1785 9.14871 12.3712 8.85596C12.5639 8.56322 12.6612 8.18142 12.6612 7.7105C12.6612 6.93416 12.3985 6.29596 11.8721 5.79596C11.3458 5.29596 10.6458 5.04688 9.7712 5.04688C8.82574 5.04688 8.08211 5.33867 7.54028 5.92233C6.99845 6.50599 6.72754 7.27687 6.72754 8.23596H7.913C7.93479 7.65867 8.02666 7.21688 8.18574 6.9105C8.46937 6.3605 8.98211 6.08505 9.72391 6.08505C10.323 6.08508 10.753 6.24508 11.0121 6.56508Z" fill="#727272"/>
<path d="M20 10C20 4.47725 15.5227 0 10 0C4.47725 0 0 4.47725 0 10C0 15.5227 4.47725 20 10 20C15.5227 20 20 15.5227 20 10ZM0.909085 10C0.909085 4.97909 4.97909 0.909085 10 0.909085C15.0209 0.909085 19.0909 4.97909 19.0909 10C19.0909 15.0209 15.0209 19.0909 10 19.0909C4.97909 19.0909 0.909085 15.0209 0.909085 10Z" fill="#727272"/>
<path d="M10.2962 13.5693H8.9707V14.9539H10.2962V13.5693Z" fill="#727272"/>
</svg>
