<svg width="20" height="18" viewBox="0 0 20 18" fill="none" xmlns="http://www.w3.org/2000/svg">
<path d="M10.9252 0C5.9215 0 1.8507 4.03721 1.85133 8.97438C1.84755 9.05279 1.80188 10.3598 2.177 11.7674L0.954655 11.0608C0.651038 10.8858 0.264273 10.9874 0.0860084 11.2879C-0.0897366 11.5878 0.0123089 11.9736 0.314981 12.1485L3.1795 13.8047C3.18548 13.8079 3.19147 13.8088 3.19714 13.8116C3.22769 13.8278 3.25887 13.8397 3.29194 13.851C3.3143 13.8588 3.33603 13.8669 3.35839 13.8722C3.38579 13.8781 3.41288 13.88 3.44091 13.8825C3.46044 13.8844 3.47997 13.8903 3.49949 13.8903C3.51052 13.8903 3.52091 13.8866 3.53225 13.8859C3.54296 13.8856 3.55209 13.8881 3.5628 13.8872C3.57855 13.8856 3.59272 13.8791 3.60815 13.8766C3.6387 13.8713 3.66768 13.8647 3.69697 13.8553C3.72154 13.8472 3.74579 13.8375 3.76941 13.8263C3.79587 13.8138 3.82075 13.8 3.84531 13.7838C3.86768 13.7694 3.88909 13.7538 3.90925 13.7369C3.93161 13.7182 3.95145 13.6979 3.9713 13.676C3.98988 13.6557 4.00594 13.6345 4.02137 13.612C4.02988 13.5995 4.04122 13.5904 4.04878 13.5776C4.05444 13.5679 4.05444 13.5567 4.05917 13.547C4.06767 13.5298 4.0809 13.5148 4.08846 13.4964L5.22797 10.6981C5.3593 10.3757 5.20246 10.0087 4.87774 9.87841C4.55239 9.74909 4.18263 9.90403 4.0513 10.2264L3.46611 11.6634C3.07556 10.3679 3.11997 9.03686 3.12123 9.00031C3.12123 4.73194 6.62259 1.25952 10.9255 1.25952C15.2287 1.25952 18.7298 4.73194 18.7298 9.00031C18.7298 13.2681 15.2287 16.7405 10.9255 16.7405C10.5746 16.7405 10.2906 17.0226 10.2906 17.3702C10.2906 17.7179 10.5743 18 10.9255 18C15.9295 18 20 13.9628 20 9.00031C19.9994 4.03721 15.9289 0 10.9252 0Z" fill="#727272"/>
<path d="M10.6819 10.2107C10.7459 10.237 10.8133 10.2463 10.8816 10.251C10.8958 10.252 10.9097 10.2595 10.9238 10.2595C10.9982 10.2595 11.0703 10.2426 11.1393 10.2176C11.1585 10.2107 11.1764 10.2007 11.195 10.1917C11.2476 10.1667 11.2961 10.1348 11.3408 10.0958C11.3506 10.0873 11.3635 10.0842 11.3733 10.0745L15.3376 6.1426C15.5858 5.89644 15.5858 5.49816 15.3376 5.252C15.0897 5.00584 14.6882 5.00584 14.4397 5.252L10.7761 8.8853L7.48829 7.51957C7.16294 7.38493 6.79256 7.53613 6.65681 7.85725C6.52138 8.17807 6.67413 8.54699 6.99696 8.68132L10.6782 10.2101C10.6794 10.2104 10.6807 10.2104 10.6819 10.2107Z" fill="#727272"/>
</svg>
