<svg width="20" height="20" viewBox="0 0 20 20" fill="none" xmlns="http://www.w3.org/2000/svg">
<path d="M18.7927 0H1.20739C0.541643 0 0 0.607993 0 1.35529V14.984C0 15.7313 0.541643 16.3393 1.20739 16.3393H7.23319V17.3254C7.23319 18.2294 6.57796 18.9649 5.7726 18.9649H4.44459C4.18998 18.9649 3.98353 19.1966 3.98353 19.4825C3.98353 19.7683 4.18998 20 4.44459 20H15.5554C15.81 20 16.0165 19.7683 16.0165 19.4825C16.0165 19.1966 15.81 18.9649 15.5554 18.9649H14.2274C13.422 18.9649 12.7668 18.2294 12.7668 17.3254V16.3393H18.7926C19.4583 16.3393 20 15.7313 20 14.984V1.35529C20.0001 0.607993 19.4584 0 18.7927 0ZM7.65315 18.965C7.96745 18.5118 8.15538 17.943 8.15538 17.3255V16.3394H11.8447V17.3255C11.8447 17.943 12.0327 18.5119 12.347 18.965H7.65315ZM19.078 14.984C19.078 15.1606 18.95 15.3043 18.7927 15.3043H1.20739C1.05008 15.3043 0.922074 15.1607 0.922074 14.984V12.264H19.078V14.984ZM19.078 11.2289H0.922113V1.35529C0.922113 1.17871 1.05008 1.03503 1.20743 1.03503H18.7927C18.95 1.03503 19.078 1.17867 19.078 1.35529V11.2289H19.078Z" fill="#727272"/>
<path d="M10.0005 14.3431C10.2753 14.3431 10.4981 14.0931 10.4981 13.7846C10.4981 13.4761 10.2753 13.2261 10.0005 13.2261C9.7257 13.2261 9.50293 13.4761 9.50293 13.7846C9.50293 14.0931 9.7257 14.3431 10.0005 14.3431Z" fill="#727272"/>
<path d="M10.7906 3.56514C10.6105 3.36305 10.3187 3.36305 10.1385 3.56514L6.88015 7.22266C6.70011 7.42475 6.70011 7.75247 6.88015 7.95461C6.97023 8.05568 7.08816 8.10619 7.2062 8.10619C7.32425 8.10619 7.44218 8.05568 7.53222 7.95461L10.7906 4.2971C10.9706 4.095 10.9706 3.76728 10.7906 3.56514Z" fill="#727272"/>
<path d="M12.7218 5.68527C12.5418 5.48317 12.25 5.48317 12.0698 5.68522L10.7717 7.1422C10.5917 7.34433 10.5917 7.67205 10.7717 7.87415C10.8618 7.97522 10.9798 8.02573 11.0978 8.02573C11.2157 8.02573 11.3337 7.97522 11.4238 7.87415L12.7218 6.41717C12.9019 6.21508 12.9019 5.88736 12.7218 5.68527Z" fill="#727272"/>
</svg>
