<svg width="21" height="20" viewBox="0 0 21 20" fill="none" xmlns="http://www.w3.org/2000/svg">
<path d="M20.2656 2.88317L18.7865 0.186672C18.6953 0.0200784 18.4733 -0.0475868 18.2905 0.0355412C18.2904 0.0355833 18.2903 0.0356255 18.2902 0.0356676L15.332 1.38392C15.1492 1.46713 15.075 1.66966 15.1663 1.83626C15.2576 2.00285 15.4798 2.07047 15.6626 1.98726L17.8051 1.01146L17.2204 2.53296C14.6508 9.20377 8.03215 13.8837 0.304688 14.494L0.367551 15.1681C8.38618 14.5349 15.2538 9.67797 17.919 2.75542L18.5158 1.20089L19.6037 3.1845C19.695 3.3511 19.9172 3.41872 20.1 3.33551C20.2828 3.2523 20.3569 3.04981 20.2656 2.88317Z" fill="#727272"/>
<path d="M3.29421 17.3027H0.705721C0.501508 17.3027 0.335938 17.4537 0.335938 17.6398V19.6622C0.335938 19.8483 0.501508 19.9992 0.705721 19.9992H3.29421C3.49842 19.9992 3.66399 19.8483 3.66399 19.6622V17.6398C3.66399 17.4537 3.49842 17.3027 3.29421 17.3027ZM2.92442 19.3251H1.07551V17.9769H2.92442V19.3251Z" fill="#727272"/>
<path d="M7.36257 16.292H4.77408C4.56987 16.292 4.4043 16.4429 4.4043 16.6291V19.6626C4.4043 19.8488 4.56987 19.9997 4.77408 19.9997H7.36257C7.56678 19.9997 7.73235 19.8488 7.73235 19.6626V16.6291C7.73235 16.4429 7.56678 16.292 7.36257 16.292ZM6.99278 19.3256H5.14386V16.9661H6.99278V19.3256Z" fill="#727272"/>
<path d="M11.4299 14.6069H8.84146C8.63725 14.6069 8.47168 14.7579 8.47168 14.944V19.6629C8.47168 19.849 8.63725 19.9999 8.84146 19.9999H11.4299C11.6342 19.9999 11.7997 19.849 11.7997 19.6629V14.944C11.7997 14.7579 11.6342 14.6069 11.4299 14.6069ZM11.0602 19.3258H9.21125V15.2811H11.0602V19.3258Z" fill="#727272"/>
<path d="M15.4973 12.2476H12.9088C12.7046 12.2476 12.5391 12.3985 12.5391 12.5846V19.6629C12.5391 19.8491 12.7046 20 12.9088 20H15.4973C15.7015 20 15.8671 19.8491 15.8671 19.6629V12.5846C15.8671 12.3985 15.7015 12.2476 15.4973 12.2476ZM15.1275 19.3259H13.2786V12.9217H15.1275V19.3259Z" fill="#727272"/>
<path d="M19.5657 7.52783H16.9772C16.773 7.52783 16.6074 7.67875 16.6074 7.86489V19.6621C16.6074 19.8482 16.773 19.9991 16.9772 19.9991H19.5657C19.7699 19.9991 19.9355 19.8482 19.9355 19.6621V7.86489C19.9355 7.67875 19.7699 7.52783 19.5657 7.52783ZM19.1959 19.325H17.347V8.20196H19.1959V19.325Z" fill="#727272"/>
</svg>
