<svg width="21" height="20" viewBox="0 0 21 20" fill="none" xmlns="http://www.w3.org/2000/svg">
<path d="M4.73936 17.2294C5.03999 18.444 4.23634 19.6585 2.94503 19.9408C1.6536 20.2232 0.362648 19.4677 0.0625618 18.2527C-0.237764 17.0378 0.565765 15.8236 1.85738 15.5409C3.14875 15.2585 4.4388 16.0146 4.73936 17.2294ZM3.73992 10.7387L2.96687 12.492C5.52597 13.4904 7.38145 15.843 7.69354 18.4841L9.69843 18.2746C9.30678 14.9561 6.9676 11.9977 3.73992 10.7387ZM4.78719 5.19494L3.92185 6.90937C8.73619 9.06107 12.1798 13.499 12.9083 18.4914L14.9066 18.2332C14.0876 12.6137 10.2097 7.6175 4.78719 5.19494ZM5.98279 0L5.11734 1.7146C12.2628 4.90704 17.2222 11.4986 18.0601 18.9165L20.0663 18.7154C19.1545 10.6452 13.7581 3.47391 5.98279 0Z" fill="#727272"/>
</svg>
