<svg width="20" height="16" viewBox="0 0 20 16" fill="none" xmlns="http://www.w3.org/2000/svg">
<path d="M19.7232 8.29491L13.0562 14.9619C12.4609 15.5572 11.4291 15.1405 11.4291 14.2873V10.4776H6.03205C5.50424 10.4776 5.07962 10.0529 5.07962 9.52513V5.71541C5.07962 5.18761 5.50424 4.76299 6.03205 4.76299H11.4291V0.953272C11.4291 0.104024 12.457 -0.316632 13.0562 0.278636L19.7232 6.94563C20.0923 7.31867 20.0923 7.92187 19.7232 8.29491ZM7.61943 14.7635V13.1761C7.61943 12.9142 7.40513 12.6999 7.14321 12.6999H3.80971C3.1073 12.6999 2.53981 12.1324 2.53981 11.43V3.81056C2.53981 3.10814 3.1073 2.54065 3.80971 2.54065H7.14321C7.40513 2.54065 7.61943 2.32636 7.61943 2.06444V0.477058C7.61943 0.21514 7.40513 0.000844033 7.14321 0.000844033H3.80971C1.70643 0.000844033 0 1.70728 0 3.81056V11.43C0 13.5333 1.70643 15.2397 3.80971 15.2397H7.14321C7.40513 15.2397 7.61943 15.0254 7.61943 14.7635Z" fill="#585858"/>
</svg>
