<svg width="27" height="27" viewBox="0 0 27 27" fill="none" xmlns="http://www.w3.org/2000/svg">
<path d="M0 6.95974e-05L26.8582 6.95974e-05C26.9054 -2.31464e-05 26.9527 -2.32518e-05 27 6.95974e-05L26.8582 6.95974e-05C6.10742 0.040862 0.305071 18.0034 0 27L0 6.95974e-05Z" fill="#057E77"/>
<path d="M26.9999 0L26.9999 26.8582C27 26.9054 27 26.9527 26.9999 27V26.8582C26.9591 6.10742 8.99658 0.305071 -1.90735e-06 0L26.9999 0Z" fill="#0CCFC3"/>
<path d="M27 26.9999L0.141764 26.9999C0.0945854 27 0.0473309 27 -1.90735e-06 26.9999H0.141764C20.8926 26.9591 26.6949 8.99658 27 -1.90735e-06L27 26.9999Z" fill="#057E77"/>
<path d="M6.95974e-05 27L6.95974e-05 0.141764C-2.31464e-05 0.0945854 -2.32518e-05 0.0473309 6.95974e-05 -1.90735e-06L6.95974e-05 0.141764C0.040862 20.8926 18.0034 26.6949 27 27L6.95974e-05 27Z" fill="#0CCFC3"/>
<path d="M18.8857 12.5402C19.5524 12.9251 19.5524 13.8873 18.8857 14.2722L11.7607 18.3859C11.0941 18.7708 10.2607 18.2896 10.2607 17.5198V9.2926C10.2607 8.5228 11.0941 8.04167 11.7607 8.42657L18.8857 12.5402Z" fill="#00F8E9"/>
<rect x="24.2998" y="14.5801" width="2.16" height="2.16" fill="white"/>
<rect x="24.2998" y="18.8994" width="2.16" height="2.16" fill="white"/>
<rect x="24.2998" y="23.2197" width="2.16" height="2.16" fill="white"/>
</svg>
