<svg width="215" height="27" viewBox="0 0 215 27" fill="none" xmlns="http://www.w3.org/2000/svg">
<path d="M45.176 8.994V21H43.196V11.838L39.182 17.382L35.348 11.874V21H33.422V8.994H35.492L39.272 14.574L43.142 8.994H45.176ZM51.6478 11.748C53.0518 11.748 54.0778 12.204 54.7258 13.116C55.3858 14.016 55.7098 15.282 55.6978 16.914H49.3618C49.4218 17.802 49.6798 18.48 50.1358 18.948C50.6038 19.404 51.2638 19.632 52.1158 19.632C52.6678 19.632 53.1958 19.566 53.6998 19.434C54.2038 19.29 54.6478 19.11 55.0318 18.894V20.658C54.0958 21.066 53.0218 21.27 51.8098 21.27C50.4538 21.27 49.3858 20.862 48.6058 20.046C47.8378 19.218 47.4538 18.048 47.4538 16.536C47.4538 14.988 47.8198 13.806 48.5518 12.99C49.2838 12.162 50.3158 11.748 51.6478 11.748ZM51.5938 13.296C50.9578 13.296 50.4598 13.464 50.0998 13.8C49.7398 14.136 49.5058 14.706 49.3978 15.51H53.7718C53.6878 14.742 53.4718 14.184 53.1238 13.836C52.7758 13.476 52.2658 13.296 51.5938 13.296ZM65.7551 8.184V19.092C65.7551 19.572 65.5571 19.98 65.1611 20.316C64.7651 20.64 64.2671 20.88 63.6671 21.036C63.0671 21.192 62.4491 21.27 61.8131 21.27C60.5291 21.27 59.4731 20.91 58.6451 20.19C57.8171 19.458 57.4031 18.186 57.4031 16.374C57.4031 14.922 57.7571 13.788 58.4651 12.972C59.1731 12.156 60.2231 11.748 61.6151 11.748C61.9391 11.748 62.3111 11.79 62.7311 11.874C63.1631 11.958 63.5471 12.084 63.8831 12.252V8.184H65.7551ZM63.8831 13.89C63.5951 13.722 63.2711 13.596 62.9111 13.512C62.5631 13.416 62.2211 13.368 61.8851 13.368C60.1811 13.368 59.3291 14.382 59.3291 16.41C59.3291 17.418 59.5211 18.21 59.9051 18.786C60.2891 19.35 60.9611 19.632 61.9211 19.632C62.4731 19.632 62.9351 19.566 63.3071 19.434C63.6911 19.302 63.8831 19.128 63.8831 18.912V13.89ZM68.4179 8.814H70.4339V10.524H68.4179V8.814ZM68.4719 12.018H70.3619L70.3799 21H68.4719V12.018ZM76.9997 11.766C77.9837 11.766 78.8177 12.006 79.5017 12.486C80.1977 12.954 80.5397 13.716 80.5277 14.772V19.092C80.5277 19.908 80.1677 20.478 79.4477 20.802C78.7277 21.114 77.7017 21.27 76.3697 21.27C75.3017 21.27 74.4197 21.048 73.7237 20.604C73.0277 20.16 72.6797 19.416 72.6797 18.372C72.6797 17.388 72.9617 16.65 73.5257 16.158C74.1017 15.666 74.9117 15.42 75.9557 15.42C77.0357 15.42 77.9357 15.636 78.6557 16.068V15.204C78.6557 13.98 77.9177 13.368 76.4417 13.368C75.9137 13.368 75.3857 13.452 74.8577 13.62C74.3297 13.776 73.8917 13.998 73.5437 14.286V12.522C73.8797 12.306 74.3657 12.126 75.0017 11.982C75.6497 11.838 76.3157 11.766 76.9997 11.766ZM76.5857 19.794C77.3417 19.794 77.8757 19.74 78.1877 19.632C78.4997 19.524 78.6557 19.308 78.6557 18.984V17.238C78.0437 16.974 77.3717 16.842 76.6397 16.842C75.9557 16.842 75.4337 16.962 75.0737 17.202C74.7257 17.442 74.5517 17.802 74.5517 18.282C74.5517 18.786 74.7497 19.164 75.1457 19.416C75.5537 19.668 76.0337 19.794 76.5857 19.794Z" fill="#0CCFC3"/>
<path d="M100.16 8.994V21H98.1804V11.838L94.1664 17.382L90.3324 11.874V21H88.4064V8.994H90.4764L94.2564 14.574L98.1264 8.994H100.16ZM106.812 11.766C107.796 11.766 108.63 12.006 109.314 12.486C110.01 12.954 110.352 13.716 110.34 14.772V19.092C110.34 19.908 109.98 20.478 109.26 20.802C108.54 21.114 107.514 21.27 106.182 21.27C105.114 21.27 104.232 21.048 103.536 20.604C102.84 20.16 102.492 19.416 102.492 18.372C102.492 17.388 102.774 16.65 103.338 16.158C103.914 15.666 104.724 15.42 105.768 15.42C106.848 15.42 107.748 15.636 108.468 16.068V15.204C108.468 13.98 107.73 13.368 106.254 13.368C105.726 13.368 105.198 13.452 104.67 13.62C104.142 13.776 103.704 13.998 103.356 14.286V12.522C103.692 12.306 104.178 12.126 104.814 11.982C105.462 11.838 106.128 11.766 106.812 11.766ZM106.398 19.794C107.154 19.794 107.688 19.74 108 19.632C108.312 19.524 108.468 19.308 108.468 18.984V17.238C107.856 16.974 107.184 16.842 106.452 16.842C105.768 16.842 105.246 16.962 104.886 17.202C104.538 17.442 104.364 17.802 104.364 18.282C104.364 18.786 104.562 19.164 104.958 19.416C105.366 19.668 105.846 19.794 106.398 19.794ZM113.014 12.792C113.35 12.588 113.92 12.366 114.724 12.126C115.528 11.886 116.326 11.766 117.118 11.766C117.598 11.766 118.006 11.844 118.342 12V13.512C118.006 13.464 117.604 13.44 117.136 13.44C116.344 13.44 115.6 13.5 114.904 13.62V21H113.014V12.792ZM125.711 21L122.075 16.95V21H120.203V8.544H122.093L122.075 15.348L125.369 11.964H127.691L123.587 15.888L128.159 21H125.711ZM132.876 11.748C134.28 11.748 135.306 12.204 135.954 13.116C136.614 14.016 136.938 15.282 136.926 16.914H130.59C130.65 17.802 130.908 18.48 131.364 18.948C131.832 19.404 132.492 19.632 133.344 19.632C133.896 19.632 134.424 19.566 134.928 19.434C135.432 19.29 135.876 19.11 136.26 18.894V20.658C135.324 21.066 134.25 21.27 133.038 21.27C131.682 21.27 130.614 20.862 129.834 20.046C129.066 19.218 128.682 18.048 128.682 16.536C128.682 14.988 129.048 13.806 129.78 12.99C130.512 12.162 131.544 11.748 132.876 11.748ZM132.822 13.296C132.186 13.296 131.688 13.464 131.328 13.8C130.968 14.136 130.734 14.706 130.626 15.51H135C134.916 14.742 134.7 14.184 134.352 13.836C134.004 13.476 133.494 13.296 132.822 13.296ZM142.322 21.234C141.494 21.234 140.846 21.012 140.378 20.568C139.91 20.124 139.676 19.494 139.676 18.678V13.53H138.218V11.964H139.676V9.444H141.62V11.964H143.816V13.53H141.62V18.3C141.62 18.744 141.698 19.068 141.854 19.272C142.01 19.464 142.286 19.56 142.682 19.56C142.874 19.56 143.072 19.536 143.276 19.488C143.492 19.428 143.672 19.356 143.816 19.272V20.946C143.396 21.138 142.898 21.234 142.322 21.234ZM148.078 21H146.098V8.994H150.85C152.23 8.994 153.292 9.318 154.036 9.966C154.78 10.602 155.152 11.544 155.152 12.792C155.152 14.04 154.774 15.006 154.018 15.69C153.274 16.362 152.218 16.698 150.85 16.698H148.078V21ZM150.598 15.006C151.546 15.006 152.194 14.814 152.542 14.43C152.902 14.034 153.082 13.512 153.082 12.864C153.082 12.192 152.902 11.658 152.542 11.262C152.194 10.866 151.546 10.668 150.598 10.668H148.078V15.006H150.598ZM157.434 21V8.544H159.306V21H157.434ZM165.875 11.766C166.859 11.766 167.693 12.006 168.377 12.486C169.073 12.954 169.415 13.716 169.403 14.772V19.092C169.403 19.908 169.043 20.478 168.323 20.802C167.603 21.114 166.577 21.27 165.245 21.27C164.177 21.27 163.295 21.048 162.599 20.604C161.903 20.16 161.555 19.416 161.555 18.372C161.555 17.388 161.837 16.65 162.401 16.158C162.977 15.666 163.787 15.42 164.831 15.42C165.911 15.42 166.811 15.636 167.531 16.068V15.204C167.531 13.98 166.793 13.368 165.317 13.368C164.789 13.368 164.261 13.452 163.733 13.62C163.205 13.776 162.767 13.998 162.419 14.286V12.522C162.755 12.306 163.241 12.126 163.877 11.982C164.525 11.838 165.191 11.766 165.875 11.766ZM165.461 19.794C166.217 19.794 166.751 19.74 167.063 19.632C167.375 19.524 167.531 19.308 167.531 18.984V17.238C166.919 16.974 166.247 16.842 165.515 16.842C164.831 16.842 164.309 16.962 163.949 17.202C163.601 17.442 163.427 17.802 163.427 18.282C163.427 18.786 163.625 19.164 164.021 19.416C164.429 19.668 164.909 19.794 165.461 19.794ZM176.054 21.18C174.782 21.18 173.72 20.814 172.868 20.082C172.028 19.35 171.608 18.168 171.608 16.536C171.608 14.856 172.022 13.644 172.85 12.9C173.69 12.144 174.752 11.766 176.036 11.766C177.008 11.766 177.932 11.946 178.808 12.306V13.998C177.896 13.614 177.062 13.422 176.306 13.422C175.358 13.422 174.65 13.662 174.182 14.142C173.714 14.61 173.48 15.36 173.48 16.392C173.48 17.472 173.708 18.264 174.164 18.768C174.62 19.26 175.352 19.506 176.36 19.506C177.176 19.506 177.998 19.308 178.826 18.912V20.604C177.962 20.988 177.038 21.18 176.054 21.18ZM184.732 11.748C186.136 11.748 187.162 12.204 187.81 13.116C188.47 14.016 188.794 15.282 188.782 16.914H182.446C182.506 17.802 182.764 18.48 183.22 18.948C183.688 19.404 184.348 19.632 185.2 19.632C185.752 19.632 186.28 19.566 186.784 19.434C187.288 19.29 187.732 19.11 188.116 18.894V20.658C187.18 21.066 186.106 21.27 184.894 21.27C183.538 21.27 182.47 20.862 181.69 20.046C180.922 19.218 180.538 18.048 180.538 16.536C180.538 14.988 180.904 13.806 181.636 12.99C182.368 12.162 183.4 11.748 184.732 11.748ZM184.678 13.296C184.042 13.296 183.544 13.464 183.184 13.8C182.824 14.136 182.59 14.706 182.482 15.51H186.856C186.772 14.742 186.556 14.184 186.208 13.836C185.86 13.476 185.35 13.296 184.678 13.296Z" fill="#057E77"/>
<path d="M0 6.95974e-05L26.8582 6.95974e-05C26.9054 -2.31464e-05 26.9527 -2.32518e-05 27 6.95974e-05L26.8582 6.95974e-05C6.10742 0.040862 0.305071 18.0034 0 27L0 6.95974e-05Z" fill="#057E77"/>
<path d="M26.9999 0L26.9999 26.8582C27 26.9054 27 26.9527 26.9999 27V26.8582C26.9591 6.10742 8.99658 0.305071 -1.90735e-06 0L26.9999 0Z" fill="#0CCFC3"/>
<path d="M27 26.9999L0.141764 26.9999C0.0945854 27 0.0473309 27 -1.90735e-06 26.9999H0.141764C20.8926 26.9591 26.6949 8.99658 27 -1.90735e-06L27 26.9999Z" fill="#057E77"/>
<path d="M6.95974e-05 27L6.95974e-05 0.141764C-2.31464e-05 0.0945854 -2.32518e-05 0.0473309 6.95974e-05 -1.90735e-06L6.95974e-05 0.141764C0.040862 20.8926 18.0034 26.6949 27 27L6.95974e-05 27Z" fill="#0CCFC3"/>
<path d="M18.8857 12.5402C19.5524 12.9251 19.5524 13.8873 18.8857 14.2722L11.7607 18.3859C11.0941 18.7708 10.2607 18.2896 10.2607 17.5198V9.2926C10.2607 8.5228 11.0941 8.04167 11.7607 8.42657L18.8857 12.5402Z" fill="#00F8E9"/>
<rect x="24.2998" y="14.5801" width="2.16" height="2.16" fill="white"/>
<rect x="24.2998" y="18.8994" width="2.16" height="2.16" fill="white"/>
<rect x="24.2998" y="23.2197" width="2.16" height="2.16" fill="white"/>
</svg>
