<svg width="16" height="15" viewBox="0 0 16 15" fill="none" xmlns="http://www.w3.org/2000/svg">
<path d="M15.2628 12.9685L12.3417 10.0478C12.2098 9.91602 12.0311 9.84279 11.8436 9.84279H11.366C12.1747 8.80871 12.6552 7.50806 12.6552 6.09316C12.6552 2.72727 9.92745 0 6.56099 0C3.19454 0 0.466797 2.72727 0.466797 6.09316C0.466797 9.45904 3.19454 12.1863 6.56099 12.1863C7.97613 12.1863 9.27701 11.7059 10.3113 10.8974V11.3749C10.3113 11.5623 10.3845 11.741 10.5164 11.8729L13.4375 14.7935C13.7129 15.0688 14.1582 15.0688 14.4307 14.7935L15.2599 13.9645C15.5353 13.6891 15.5353 13.2438 15.2628 12.9685ZM6.56099 9.84279C4.48955 9.84279 2.81072 8.16717 2.81072 6.09316C2.81072 4.02207 4.48662 2.34352 6.56099 2.34352C8.63243 2.34352 10.3113 4.01914 10.3113 6.09316C10.3113 8.16424 8.63536 9.84279 6.56099 9.84279Z" fill="#B9B9B9"/>
</svg>
